<?xml version="1.0" encoding="utf-8"?>
<!-- Generator: Adobe Illustrator 23.0.2, SVG Export Plug-In . SVG Version: 6.00 Build 0)  -->
<svg version="1.1" id="Layer_1" xmlns="http://www.w3.org/2000/svg" xmlns:xlink="http://www.w3.org/1999/xlink" x="0px" y="0px"
	 viewBox="0 0 1496.02 272.67" style="enable-background:new 0 0 1496.02 272.67;" xml:space="preserve">
<style type="text/css">
	.st0{fill:#FFFFFF;}
</style>
<g>
	<path class="st0" d="M263.17,35.23v183.64h-50.44v-71.9h-61.56v71.9h-50.44V35.23h50.44v67.76h61.56V35.23H263.17z"/>
	<path class="st0" d="M342.32,35.23h46.04l63.63,183.64h-51.21l-11.12-35.95h-48.88l-10.86,35.95h-51.47L342.32,35.23z
		 M381.63,149.29l-16.29-56.9l-17.07,56.9H381.63z"/>
	<path class="st0" d="M540.44,175.67c5.86,0,10.86-1.29,15-3.88c4.14-2.59,7.5-5.99,10.09-10.22c2.59-4.22,4.48-9.09,5.69-14.61
		c1.2-5.52,1.81-11.29,1.81-17.33v-94.4h50.44v94.4c0,12.76-1.64,24.7-4.91,35.82c-3.28,11.12-8.37,20.74-15.26,28.84
		c-6.9,8.11-15.56,14.48-25.99,19.14c-10.43,4.66-22.72,6.98-36.86,6.98c-14.66,0-27.2-2.46-37.63-7.37
		c-10.43-4.92-19.01-11.51-25.74-19.79c-6.72-8.28-11.64-17.89-14.74-28.84c-3.1-10.95-4.66-22.54-4.66-34.79v-94.4h50.44v94.4
		c0,6.04,0.6,11.86,1.81,17.46c1.21,5.61,3.1,10.52,5.69,14.74c2.59,4.23,5.9,7.59,9.96,10.09
		C529.62,174.42,534.57,175.67,540.44,175.67z"/>
	<path class="st0" d="M791.32,218.86v-96.73l-30.78,68.02h-26.9l-30.78-68.02v96.73h-50.44V35.23h55.09l39.57,86.39l39.83-86.39
		h54.83v183.64H791.32z"/>
	<path class="st0" d="M920.9,35.23h46.04l63.63,183.64h-51.21l-11.12-35.95h-48.88l-10.86,35.95h-51.47L920.9,35.23z M960.21,149.29
		l-16.29-56.9l-17.07,56.9H960.21z"/>
	<path class="st0" d="M1096.26,128.6v90.27h-50.44V35.23h39.31l73.71,93.37V35.23h50.44v183.64h-40.09L1096.26,128.6z"/>
	<path class="st0" d="M1288.43,35.23h46.04l63.63,183.64h-51.21l-11.12-35.95h-48.88l-10.86,35.95h-51.47L1288.43,35.23z
		 M1327.74,149.29l-16.29-56.9l-17.07,56.9H1327.74z"/>
</g>
<g>
	<g>
		<path class="st0" d="M24.5,230.39c0-23,2.77-39.72,2.77-60.98c0-12.38-5.77-24.6-27.27-24.83V128.1
			c21.49-0.23,27.27-12.45,27.27-24.43c0-21.66-2.77-38.39-2.77-61.38C24.5,9.41,36.38,0,61.54,0h14.18v14.91h-8.28
			c-17.14,0-21.63,8.38-21.63,28.88c0,19.18,1.67,35.88,1.67,57.48c0,20.56-5.15,30.64-18.95,34.44v1.27
			c13.8,3.8,18.95,14.29,18.95,34.44c0,21.6-1.67,38.3-1.67,57.48c0,20.5,4.49,28.88,21.63,28.88h8.28v14.91H61.54
			C36.38,272.67,24.5,263.26,24.5,230.39z"/>
	</g>
</g>
<g>
	<g>
		<path class="st0" d="M1420.3,257.76h8.28c17.14,0,21.63-8.38,21.63-28.88c0-19.18-1.67-35.88-1.67-57.48
			c0-20.15,5.15-30.64,18.95-34.44v-1.27c-13.8-3.8-18.95-13.88-18.95-34.44c0-21.6,1.67-38.3,1.67-57.48
			c0-20.49-4.49-28.88-21.63-28.88h-8.28V0h14.18c25.16,0,37.04,9.41,37.04,42.28c0,23-2.77,39.72-2.77,61.38
			c0,11.98,5.77,24.2,27.27,24.43v16.48c-21.49,0.23-27.27,12.45-27.27,24.83c0,21.26,2.77,37.99,2.77,60.98
			c0,32.87-11.88,42.28-37.04,42.28h-14.18V257.76z"/>
	</g>
</g>
</svg>
